<svg xmlns="http://www.w3.org/2000/svg" width="400" height="400" viewBox="0 0 400 400" role="img" aria-label="AppleSilicon FP8">
  <defs>
    <linearGradient id="bg" x1="0" y1="0" x2="1" y2="1">
      <stop offset="0" stop-color="#1d1f27"/>
      <stop offset="1" stop-color="#0b0c10"/>
    </linearGradient>
    <linearGradient id="accent" x1="0" y1="0" x2="1" y2="1">
      <stop offset="0" stop-color="#7aa2ff"/>
      <stop offset="1" stop-color="#b98cff"/>
    </linearGradient>
  </defs>

  <rect width="400" height="400" rx="72" fill="url(#bg)"/>

  <!-- chip pins -->
  <g fill="url(#accent)" opacity="0.85">
    <rect x="120" y="92"  width="14" height="26" rx="4"/>
    <rect x="193" y="92"  width="14" height="26" rx="4"/>
    <rect x="266" y="92"  width="14" height="26" rx="4"/>
    <rect x="120" y="282" width="14" height="26" rx="4"/>
    <rect x="193" y="282" width="14" height="26" rx="4"/>
    <rect x="266" y="282" width="14" height="26" rx="4"/>
    <rect x="92"  y="120" width="26" height="14" rx="4"/>
    <rect x="92"  y="193" width="26" height="14" rx="4"/>
    <rect x="92"  y="266" width="26" height="14" rx="4"/>
    <rect x="282" y="120" width="26" height="14" rx="4"/>
    <rect x="282" y="193" width="26" height="14" rx="4"/>
    <rect x="282" y="266" width="26" height="14" rx="4"/>
  </g>

  <!-- chip die -->
  <rect x="118" y="118" width="164" height="164" rx="30" fill="none" stroke="url(#accent)" stroke-width="6"/>

  <!-- FP8 wordmark -->
  <text x="200" y="196" text-anchor="middle" font-family="Menlo, monospace" font-size="72" font-weight="700" fill="#f4f5fb">FP8</text>
  <text x="200" y="244" text-anchor="middle" font-family="Menlo, monospace" font-size="30" font-weight="600" fill="url(#accent)">INT8 · MPS</text>
</svg>
